<svg width="157" height="20" fill="none" xmlns="http://www.w3.org/2000/svg"><path d="M8.153 1.613l8.961 15.518-2.169 1.256L5.984 2.87l2.169-1.257z" fill="#F66"/><path d="M17.116 2.863l-8.962 15.52-2.169-1.247 8.962-15.52 2.169 1.247z" fill="#F66"/><path d="M20.512 11.25l-17.924.001V8.748h17.924v2.502z" fill="#F66"/><path fill-rule="evenodd" clip-rule="evenodd" d="M3.88 7.76l.647 1.12.647 1.12-.647 1.12-.646 1.12H1.293l-.646-1.12L0 10l.647-1.12.647-1.12H3.88zM12.842 7.76l.647 1.12.647 1.12-.647 1.12-.647 1.12H10.255l-.646-1.12L8.962 10l.646-1.12.647-1.12H12.842zM21.804 7.76l.647 1.12.646 1.12-.646 1.12-.647 1.12H19.217l-.647-1.12-.647-1.12.647-1.12.647-1.12H21.804zM8.362 0l.646 1.12.647 1.12-.647 1.12-.646 1.12H5.775l-.647-1.12-.647-1.12.647-1.12L5.775 0H8.362zM17.323 0l.647 1.12.647 1.12-.647 1.12-.647 1.12H14.736l-.647-1.12-.646-1.12.646-1.12.647-1.12H17.323zM5.775 20H8.362l.646-1.12.647-1.12-.647-1.12-.646-1.12H5.775l-.647 1.12-.647 1.12.647 1.12.647 1.12zM14.736 20H17.323l.647-1.12.647-1.12-.647-1.12-.647-1.12H14.736l-.647 1.12-.646 1.12.646 1.12.647 1.12z" fill="#DEDEDE"/><path d="M34.328 17.024h5.428V6.592h5.064V3.051H29.284v3.541h5.044v10.432zm17.556-7.93V6.592h3.023c1.578 0 2.387.154 2.387 1.213 0 1.02-.77 1.29-2.253 1.29h-3.157zm5.16-6.043H46.398v13.973h5.486v-4.253h3.235c1.328 0 1.848.346 1.963 1.386.135 1.174-.058 2.194.366 2.867h6.006v-.211c-.655-.327-.655-1.482-.751-3.484-.077-1.598-.25-2.367-1.732-2.983 1.443-.559 2.29-1.887 2.29-3.542 0-1.347-.558-2.406-1.597-3.041-.886-.54-2.426-.712-4.62-.712zm6.429 13.973h5.794l.5-1.386h5.95l.461 1.386h5.852L76.39 3.051h-6.873l-6.044 13.973zm7.585-4.812l1.77-4.927 1.675 4.927h-3.445zm11.954 4.812h5.429v-5.216h6.949V8.383h-6.95V6.477h8.529V3.05H83.012v13.973zm15.67 0h5.428v-5.216h6.95V8.383h-6.95V6.477h8.528V3.05H98.682v13.973zM118.947 3.05h-1.983v13.974h10.53v-1.828h-8.547V3.051zm8.816 13.974h2.099l1.848-3.984h7.142l1.771 3.984h2.06l-6.218-13.973h-2.06l-6.642 13.973zm4.775-5.812l2.829-5.948 2.676 5.948h-5.505zm11.742 5.812h7.585c3.33 0 4.928-1.29 4.928-4.08 0-1.81-.943-2.945-2.695-3.291 1.463-.578 2.214-1.598 2.214-3.08 0-2.213-1.502-3.522-4.255-3.522h-7.777v13.973zm1.983-12.144h5.39c1.829 0 2.676.557 2.676 2.001 0 1.578-.981 2.04-3.099 2.04h-4.967V4.88zm0 5.87h5.429c2.079 0 3.041.674 3.041 2.348 0 1.54-1.097 2.098-3.33 2.098h-5.14V10.75z" fill="#DEDEDE"/></svg>