<svg xmlns="http://www.w3.org/2000/svg" width="32" height="32" fill="none"><path fill="#fff" d="M16 2.883c4.272 0 4.779.016 6.465.093 1.744.08 3.54.477 4.811 1.748 1.283 1.283 1.668 3.061 1.748 4.81.077 1.687.093 2.194.093 6.466s-.016 4.779-.093 6.465c-.079 1.735-.485 3.548-1.748 4.811-1.283 1.283-3.06 1.668-4.81 1.748-1.687.077-2.194.093-6.466.093s-4.779-.016-6.465-.093c-1.722-.079-3.559-.495-4.811-1.748-1.276-1.276-1.668-3.072-1.748-4.81-.077-1.687-.093-2.194-.093-6.466s.016-4.779.093-6.465c.079-1.728.49-3.552 1.748-4.811 1.28-1.28 3.065-1.668 4.81-1.748 1.687-.077 2.194-.093 6.466-.093ZM16 0c-4.345 0-4.89.019-6.597.096-2.474.113-4.93.801-6.718 2.59C.891 4.48.21 6.93.096 9.402.019 11.109 0 11.655 0 16c0 4.345.019 4.89.096 6.597.113 2.471.804 4.934 2.59 6.718 1.793 1.793 4.247 2.476 6.717 2.589 1.706.077 2.252.096 6.597.096 4.345 0 4.89-.019 6.597-.096 2.472-.113 4.931-.803 6.718-2.59 1.796-1.795 2.476-4.245 2.589-6.717.077-1.706.096-2.252.096-6.597 0-4.345-.019-4.89-.096-6.597-.113-2.474-.803-4.931-2.59-6.718C27.525.895 25.064.208 22.598.096 20.891.019 20.345 0 16 0Z"/><path fill="#fff" d="M16 7.784a8.216 8.216 0 1 0 0 16.433 8.216 8.216 0 0 0 0-16.433Zm0 13.55a5.334 5.334 0 1 1 0-10.668 5.334 5.334 0 0 1 0 10.667ZM24.541 9.379a1.92 1.92 0 1 0 0-3.84 1.92 1.92 0 0 0 0 3.84Z"/></svg>