<svg width="20" height="20" fill="none" xmlns="http://www.w3.org/2000/svg"><path d="M.659 10.004c0 5.182 4.18 9.375 9.329 9.375.602 0 1.18-.057 1.748-.164a5.397 5.397 0 002.815.785C17.56 20 20 17.548 20 14.524c0-1.063-.3-2.052-.822-2.885.09-.531.147-1.08.147-1.635 0-5.182-4.18-9.375-9.33-9.375A9.12 9.12 0 008.28.793 5.364 5.364 0 005.45 0C2.44-.008 0 2.444 0 5.468c0 1.054.3 2.035.813 2.869a9.348 9.348 0 00-.146 1.667H.659zm9.434-6.661c3.01.18 4.775 1.504 4.946 2.746.081.81-.456 1.447-1.383 1.447-1.358 0-1.497-1.823-3.847-1.823-1.057 0-1.952.441-1.952 1.398 0 2.002 7.515.842 7.515 5.247 0 2.542-2.025 4.21-5.043 4.21-2.66 0-5.327-1.21-5.319-3.295 0-.629.472-1.21 1.09-1.21 1.562 0 1.554 2.338 4.042 2.338 1.749 0 2.343-.956 2.343-1.626 0-2.411-7.556-.932-7.556-5.468 0-2.452 2.009-4.152 5.165-3.964z" fill="#fff"/></svg>