<svg xmlns="http://www.w3.org/2000/svg" width="32" height="32" fill="none"><path fill="#fff" fill-rule="evenodd" d="M16 0C7.164 0 0 7.164 0 16s7.164 16 16 16 16-7.164 16-16S24.836 0 16 0Zm7.416 10.881c-.24 2.53-1.283 8.67-1.812 11.503-.224 1.2-.667 1.601-1.093 1.64-.93.085-1.635-.615-2.535-1.204-1.408-.923-2.204-1.497-3.57-2.399-1.58-1.041-.557-1.613.343-2.548.236-.245 4.33-3.969 4.41-4.306.009-.043.02-.2-.075-.283-.095-.083-.232-.055-.33-.032-.142.032-2.391 1.519-6.75 4.46-.639.439-1.217.652-1.736.641-.57-.012-1.67-.322-2.487-.589-1.001-.325-1.798-.499-1.729-1.05.036-.289.432-.583 1.19-.885 4.663-2.032 7.774-3.372 9.33-4.02 4.444-1.848 5.367-2.169 5.97-2.18.754-.01.935.612.874 1.252Z" clip-rule="evenodd"/></svg>