<svg xmlns="http://www.w3.org/2000/svg" width="32" height="26" fill="none"><path fill="#fff" d="M28.724 6.472c.019.282.019.564.019.848 0 8.677-6.606 18.68-18.68 18.68v-.005A18.582 18.582 0 0 1 0 23.052a13.175 13.175 0 0 0 9.716-2.721 6.573 6.573 0 0 1-6.133-4.56c.984.19 1.997.15 2.964-.112A6.566 6.566 0 0 1 1.28 9.223V9.14c.913.51 1.935.791 2.98.822a6.57 6.57 0 0 1-2.033-8.764 18.642 18.642 0 0 0 13.53 6.86A6.571 6.571 0 0 1 26.945 2.07c1.471-.29 2.88-.83 4.17-1.594a6.596 6.596 0 0 1-2.887 3.632A13.188 13.188 0 0 0 32 3.074a13.344 13.344 0 0 1-3.276 3.398Z"/></svg>